<?xml version="1.0" standalone="no"?>
<!DOCTYPE svg PUBLIC "-//W3C//DTD SVG 20010904//EN"
 "http://www.w3.org/TR/2001/REC-SVG-20010904/DTD/svg10.dtd">
<svg version="1.0" xmlns="http://www.w3.org/2000/svg"
 width="1500.000000pt" height="1500.000000pt" viewBox="0 0 1500.000000 1500.000000"
 preserveAspectRatio="xMidYMid meet">
<metadata>
Created by potrace 1.14, written by Peter Selinger 2001-2017
</metadata>
<g transform="translate(0.000000,1500.000000) scale(0.100000,-0.100000)"
fill="#000000" stroke="none">
<path d="M6626 10763 c-1 -1 -31 -5 -66 -8 -36 -3 -72 -8 -80 -10 -8 -2 -30
-7 -48 -10 -61 -10 -179 -53 -298 -108 -166 -77 -238 -105 -304 -122 -58 -14
-141 -19 -365 -20 -268 -1 -271 -1 -349 -28 -43 -15 -97 -41 -121 -57 -54 -37
-138 -129 -172 -188 -44 -79 -74 -124 -80 -119 -12 13 -315 -104 -538 -208
-44 -20 -111 -52 -150 -70 -100 -46 -225 -97 -340 -139 -55 -20 -109 -40 -120
-45 -11 -5 -83 -27 -160 -50 -208 -62 -238 -71 -260 -76 -78 -18 -251 -56
-273 -60 -15 -3 -38 -7 -52 -10 -13 -2 -40 -7 -60 -10 -20 -3 -45 -7 -55 -9
-11 -2 -40 -7 -65 -10 -25 -3 -54 -8 -66 -10 -12 -2 -45 -7 -75 -11 -391 -46
-593 -162 -778 -443 -154 -235 -304 -685 -346 -1037 -4 -27 -9 -61 -11 -75 -6
-28 -5 -1013 1 -1075 19 -219 115 -435 283 -640 168 -203 359 -350 523 -400
134 -41 324 -50 599 -29 132 10 339 11 405 2 194 -28 329 -120 483 -328 118
-159 160 -210 247 -291 101 -95 215 -170 375 -246 107 -51 134 -62 250 -106
71 -27 441 -148 580 -190 30 -9 78 -23 106 -32 28 -8 59 -17 70 -19 10 -2 55
-14 99 -25 44 -12 94 -24 110 -27 17 -3 50 -10 75 -15 25 -6 59 -13 75 -15 17
-3 41 -7 53 -10 13 -3 43 -7 65 -10 23 -3 53 -7 67 -10 103 -18 375 -24 515
-11 226 20 413 75 630 184 76 38 308 189 422 274 314 235 549 364 703 387 58
9 173 8 229 -2 108 -19 284 -100 459 -213 45 -29 87 -53 92 -53 4 0 10 -4 12
-9 6 -16 234 -153 343 -206 148 -71 306 -123 458 -151 90 -16 214 -27 317 -28
87 -1 301 21 375 39 168 40 366 125 456 197 106 83 200 197 274 333 74 134
167 267 239 338 134 135 201 170 671 352 137 53 425 174 440 186 6 4 51 28
100 54 104 54 258 146 263 158 2 4 10 7 17 7 7 0 15 4 17 8 2 5 25 23 52 42
81 55 248 203 322 286 85 94 241 296 277 356 14 25 35 78 46 117 21 75 21 68
24 921 0 91 -15 285 -29 360 -3 14 -7 37 -9 51 -22 147 -110 354 -238 558
-128 206 -235 319 -467 492 -101 76 -305 208 -305 198 0 -2 -14 6 -30 18 -17
12 -58 33 -90 48 -33 15 -73 33 -90 41 -64 29 -225 76 -336 98 -131 26 -157
31 -214 40 -16 2 -49 7 -73 11 -24 4 -62 9 -85 10 -23 2 -78 7 -122 11 -44 4
-226 8 -403 8 l-324 2 -16 29 c-10 16 -23 35 -29 43 -7 7 -13 17 -13 22 0 12
-98 104 -143 135 -65 43 -132 74 -224 101 -86 26 -94 26 -413 28 -179 2 -361
6 -405 10 -133 12 -177 15 -245 15 l-65 1 -71 70 c-134 131 -251 205 -434 273
-226 84 -450 116 -925 132 -93 3 -228 7 -300 10 -371 14 -883 24 -889 18z"/>
</g>
</svg>
