<svg xmlns="http://www.w3.org/2000/svg" role="img" viewBox="13.89 40.01 71.85 122.85"><path d="M67.2 88.3c-2.1-.5-5.3-.8-11.5-1.3s-9.2-.5-12.3-1.9c-1.1-.5-5.5-2.4-8.1-6.1-5.8-8.5-1.8-25 8.8-30.1 6.3-3 15.5-2.3 18.5 2.2a15.7 15.7 0 0 1 2.1 9.2 25.1 25.1 0 0 0-.3 3.4c-.1 2.4-.1 4.3 1 6s6.1 3.9 8.3 3.4a13.6 13.6 0 0 0 3.4-1.7l.2-.2c1.4-1 2.7-3.7 2.8-6.4s-1.4-6.2-3-8.6a29.4 29.4 0 0 0-10-9.8c-1.2-.7-13.7-7.6-25.4-1.5S28.6 62.7 27.9 66.1C26 75.4 29.4 82.2 26.3 84s-9.5-3.8-9.5-3.6 3.9 4 10.7 6.7 13.6 2.6 27.5 2.5c.7 0 2.3-.2 4.5-.1a38.2 38.2 0 0 1 10.7 1.6c6.9 2.3 11.4 7.8 13.3 10.4-6-9.1-11.9-12.1-16.3-13.2z" class="cls-1"/><path d="M70.9 94.1c-9.8-4.8-16.1-.1-35.4-2.2A32.7 32.7 0 0 1 22 87.7a63.3 63.3 0 0 1-5.7-4.4c-.2.2 4.2 5.1 8.1 8.2C40.2 104 54.1 94 66 103.9c9.8 8.2 9.1 22.5 9 24.2-.6 11.3-7.4 23.5-19 26.6-7.6 2-16.9-2.2-20.5-9.1a10 10 0 0 1-.3-9.2c.9-1.6 2.3-2.9 3.3-4.5l.6-1.3a7 7 0 0 0 .2-4.3 6.4 6.4 0 0 0-4.7-4.3 7.3 7.3 0 0 0-6.2 1.8c-2.2 2-3 5-3.2 8a22.1 22.1 0 0 0 7.1 17.2l4.3 3.5a3.2 3.2 0 0 1 1.1 1.7 1.5 1.5 0 0 1-.2.8c-.5.6-1.8.1-2.3 0-8.3-2.6-12.2-11.9-12.2-11.9a32.7 32.7 0 0 1-2.2-10.6c-.3 0-1 5.6 1.1 11.6a25.7 25.7 0 0 0 9.2 12c6.8 4.8 14 4.6 17.3 4.5s14.8-.6 23.7-10.8a35.4 35.4 0 0 0 7.9-17.1c.5-2.7 2.1-11.5-1.8-20.7s-9.5-13.1-8.3-14.5 2.6.1 4.5.8a19.8 19.8 0 0 1 8.2 6 30.2 30.2 0 0 0-11.7-10.2zm-18.6-30c-2.6-1.2-6.8.9-7.2 3.7s.5 5.8 2.9 7.3a5.6 5.6 0 0 0 6.8-.5 4.9 4.9 0 0 0 1.4-4 7.9 7.9 0 0 0-3.9-6.5z" class="cls-1"/><path d="M48.3 130.7a7.5 7.5 0 0 0 .2 4.4 7.8 7.8 0 0 0 7.8 4.4c3.7-.3 5.6-3.4 6.1-4.1a11.1 11.1 0 0 0 1.5-5.6c-.3-6.7-4.7-11.9-5.3-12.7a23.6 23.6 0 0 0-14.2-7.3 25.7 25.7 0 0 0-14.4 1.9 18.9 18.9 0 0 1 7.9-1c2.3.1 7.9.5 11.4 5 1.8 2.1 3.9 6.5 2.4 9.8s-2.7 2.5-3.4 5.2z" class="cls-1"/></svg>